<?xml version="1.0" encoding="UTF-8" standalone="no"?>
<!-- Created with Inkscape (http://www.inkscape.org/) -->
<svg
   xmlns:dc="http://purl.org/dc/elements/1.1/"
   xmlns:cc="http://creativecommons.org/ns#"
   xmlns:rdf="http://www.w3.org/1999/02/22-rdf-syntax-ns#"
   xmlns:svg="http://www.w3.org/2000/svg"
   xmlns="http://www.w3.org/2000/svg"
   xmlns:sodipodi="http://sodipodi.sourceforge.net/DTD/sodipodi-0.dtd"
   xmlns:inkscape="http://www.inkscape.org/namespaces/inkscape"
   width="48"
   height="48"
   id="svg2"
   sodipodi:version="0.32"
   inkscape:version="0.46"
   version="1.0"
   sodipodi:docname="darklord.svg"
   inkscape:output_extension="org.inkscape.output.svg.inkscape">
  <defs
     id="defs4">
    <inkscape:perspective
       sodipodi:type="inkscape:persp3d"
       inkscape:vp_x="0 : 526.18109 : 1"
       inkscape:vp_y="0 : 1000 : 0"
       inkscape:vp_z="744.09448 : 526.18109 : 1"
       inkscape:persp3d-origin="372.04724 : 350.78739 : 1"
       id="perspective10" />
    <inkscape:perspective
       id="perspective2447"
       inkscape:persp3d-origin="372.04724 : 350.78739 : 1"
       inkscape:vp_z="744.09448 : 526.18109 : 1"
       inkscape:vp_y="0 : 1000 : 0"
       inkscape:vp_x="0 : 526.18109 : 1"
       sodipodi:type="inkscape:persp3d" />
  </defs>
  <sodipodi:namedview
     id="base"
     pagecolor="#ffffff"
     bordercolor="#666666"
     borderopacity="1.0"
     inkscape:pageopacity="0.0"
     inkscape:pageshadow="2"
     inkscape:zoom="1.979899"
     inkscape:cx="81.278031"
     inkscape:cy="76.959441"
     inkscape:document-units="px"
     inkscape:current-layer="layer1"
     showgrid="false"
     inkscape:window-width="728"
     inkscape:window-height="731"
     inkscape:window-x="123"
     inkscape:window-y="39" />
  <metadata
     id="metadata7">
    <rdf:RDF>
      <cc:Work
         rdf:about="">
        <dc:format>image/svg+xml</dc:format>
        <dc:type
           rdf:resource="http://purl.org/dc/dcmitype/StillImage" />
      </cc:Work>
    </rdf:RDF>
  </metadata>
  <g
     inkscape:label="Capa 1"
     inkscape:groupmode="layer"
     id="layer1"
     transform="translate(-83.142853,-299.07648)">
    <g
       id="g2453"
       transform="matrix(0.4375681,0,0,0.4488097,48.788293,163.70516)">
      <path
         style="fill:#b20601"
         d="M 116.74494,396.31171 C 117.0114,389.52896 117.46007,382.02325 117.74198,379.63235 C 118.30482,374.85906 116.23152,365.37061 113.41525,359.83107 C 112.46675,357.96537 110.95481,353.00248 110.05539,348.80241 L 108.42008,341.16591 L 103.93712,339.10216 C 99.609767,337.11004 93.084613,331.47256 94.019878,330.53404 C 94.270977,330.28206 96.71514,330.61483 99.45135,331.27352 C 107.65048,333.24731 108.54298,332.7808 111.52999,324.96012 C 114.32959,317.63014 117.26713,312.23517 120.32912,308.8 C 122.0594,306.85885 123.07904,306.66557 131.58953,306.66557 L 140.94739,306.66557 L 144.34202,310.46012 C 146.20906,312.54712 148.31342,314.25466 149.01837,314.25466 C 150.52613,314.25466 156.76739,310.44226 161.99583,306.32753 L 165.69367,303.41736 L 165.00535,306.1694 C 164.19058,309.42698 161.54692,313.47169 157.23508,318.05762 L 154.10538,321.38626 L 157.50821,325.64671 C 164.4454,334.33228 167.63349,344.88986 168.67768,362.63512 L 169.31962,373.54443 L 166.99625,370.22421 C 164.40148,366.51613 155.77199,361.68648 151.74126,361.68648 C 149.47911,361.68648 141.42935,363.36676 134.20707,365.34652 C 130.59787,366.33587 120.98255,384.88678 120.92325,390.97509 C 120.90483,392.86673 120.28179,395.48165 119.53873,396.78602 C 118.79567,398.0904 118.14273,400.43827 118.08777,402.00352 C 118.0328,403.56877 117.59917,405.70321 117.12415,406.74671 C 116.57751,407.94754 116.43832,404.11711 116.74494,396.31171 z"
         id="path2457" />
      <path
         style="fill:#090707"
         d="M 117.01496,395.83739 C 117.95516,378.22674 117.6845,370.22662 116.00398,365.95534 C 112.09887,356.02994 110.55442,351.30956 109.61861,346.43944 C 108.68365,341.57372 108.31155,341.02413 104.94216,339.53239 C 102.92879,338.641 99.433681,336.18702 97.175246,334.07909 C 93.643955,330.78313 93.399919,330.32856 95.432371,330.83264 C 96.732223,331.15502 100.18347,331.66626 103.10182,331.96873 C 109.13074,332.59358 109.13523,332.58988 111.75904,324.84088 C 114.00524,318.20706 118.74751,309.84296 121.2663,308.07259 C 122.68489,307.07552 125.81237,306.66557 132.00049,306.66557 L 140.73284,306.66557 L 144.23152,310.46012 C 146.15579,312.54712 148.35611,314.25466 149.12111,314.25466 C 150.88377,314.25466 156.18691,311.07817 161.37036,306.91756 C 164.03961,304.77503 165.38809,304.15526 165.38809,305.07101 C 165.38809,306.95018 157.99864,317.92451 155.80961,319.29633 C 153.37639,320.82119 153.52336,321.35658 157.76431,326.41674 C 164.33814,334.26044 167.59108,345.27709 168.73878,363.58375 L 169.36325,373.54443 L 167.10436,370.22821 C 164.26369,366.05788 156.62669,361.81273 151.83571,361.74087 C 147.86852,361.68137 136.95473,364.08199 133.32088,365.81344 C 130.24405,367.27947 121.09619,384.67084 121.02115,389.19693 C 120.99088,391.02306 120.35048,394.43815 119.59805,396.78602 C 118.84562,399.1339 117.81417,402.54899 117.30594,404.37512 C 116.65454,406.71566 116.56868,404.19648 117.01496,395.83739 z M 132.53726,346.13639 C 136.24664,343.31077 133.90506,341.26159 125.41092,339.89992 C 121.9216,339.34056 117.98332,339.15576 116.65919,339.48925 C 114.31956,340.0785 114.29956,340.14942 115.94986,342.00472 C 119.84503,346.38376 129.16498,348.70522 132.53726,346.13639 z M 147.05802,342.2211 C 149.76115,339.50857 153.57999,331.49698 152.62608,330.5398 C 151.64571,329.55606 141.64845,335.38033 139.60648,338.12484 C 135.63246,343.46613 142.21261,347.08337 147.05802,342.2211 z"
         id="path2455" />
    </g>
  </g>
</svg>
