<?xml version="1.0" encoding="UTF-8" standalone="no"?>
<!-- Created with Inkscape (http://www.inkscape.org/) -->
<svg
   xmlns:dc="http://purl.org/dc/elements/1.1/"
   xmlns:cc="http://creativecommons.org/ns#"
   xmlns:rdf="http://www.w3.org/1999/02/22-rdf-syntax-ns#"
   xmlns:svg="http://www.w3.org/2000/svg"
   xmlns="http://www.w3.org/2000/svg"
   xmlns:sodipodi="http://sodipodi.sourceforge.net/DTD/sodipodi-0.dtd"
   xmlns:inkscape="http://www.inkscape.org/namespaces/inkscape"
   width="48"
   height="48"
   id="svg2"
   sodipodi:version="0.32"
   inkscape:version="0.46"
   version="1.0"
   sodipodi:docname="mpd.svg"
   inkscape:output_extension="org.inkscape.output.svg.inkscape"
   inkscape:export-filename="/home/kev/Images/flujos-lives/icons/salida.png"
   inkscape:export-xdpi="90"
   inkscape:export-ydpi="90">
  <defs
     id="defs4">
    <inkscape:perspective
       sodipodi:type="inkscape:persp3d"
       inkscape:vp_x="0 : 526.18109 : 1"
       inkscape:vp_y="0 : 1000 : 0"
       inkscape:vp_z="744.09448 : 526.18109 : 1"
       inkscape:persp3d-origin="372.04724 : 350.78739 : 1"
       id="perspective10" />
    <inkscape:perspective
       id="perspective2447"
       inkscape:persp3d-origin="372.04724 : 350.78739 : 1"
       inkscape:vp_z="744.09448 : 526.18109 : 1"
       inkscape:vp_y="0 : 1000 : 0"
       inkscape:vp_x="0 : 526.18109 : 1"
       sodipodi:type="inkscape:persp3d" />
    <inkscape:perspective
       id="perspective2581"
       inkscape:persp3d-origin="372.04724 : 350.78739 : 1"
       inkscape:vp_z="744.09448 : 526.18109 : 1"
       inkscape:vp_y="0 : 1000 : 0"
       inkscape:vp_x="0 : 526.18109 : 1"
       sodipodi:type="inkscape:persp3d" />
    <inkscape:perspective
       id="perspective2594"
       inkscape:persp3d-origin="372.04724 : 350.78739 : 1"
       inkscape:vp_z="744.09448 : 526.18109 : 1"
       inkscape:vp_y="0 : 1000 : 0"
       inkscape:vp_x="0 : 526.18109 : 1"
       sodipodi:type="inkscape:persp3d" />
    <inkscape:perspective
       id="perspective2607"
       inkscape:persp3d-origin="372.04724 : 350.78739 : 1"
       inkscape:vp_z="744.09448 : 526.18109 : 1"
       inkscape:vp_y="0 : 1000 : 0"
       inkscape:vp_x="0 : 526.18109 : 1"
       sodipodi:type="inkscape:persp3d" />
    <inkscape:perspective
       id="perspective2656"
       inkscape:persp3d-origin="372.04724 : 350.78739 : 1"
       inkscape:vp_z="744.09448 : 526.18109 : 1"
       inkscape:vp_y="0 : 1000 : 0"
       inkscape:vp_x="0 : 526.18109 : 1"
       sodipodi:type="inkscape:persp3d" />
    <inkscape:perspective
       id="perspective2705"
       inkscape:persp3d-origin="372.04724 : 350.78739 : 1"
       inkscape:vp_z="744.09448 : 526.18109 : 1"
       inkscape:vp_y="0 : 1000 : 0"
       inkscape:vp_x="0 : 526.18109 : 1"
       sodipodi:type="inkscape:persp3d" />
    <inkscape:perspective
       id="perspective2718"
       inkscape:persp3d-origin="372.04724 : 350.78739 : 1"
       inkscape:vp_z="744.09448 : 526.18109 : 1"
       inkscape:vp_y="0 : 1000 : 0"
       inkscape:vp_x="0 : 526.18109 : 1"
       sodipodi:type="inkscape:persp3d" />
    <inkscape:perspective
       id="perspective2767"
       inkscape:persp3d-origin="372.04724 : 350.78739 : 1"
       inkscape:vp_z="744.09448 : 526.18109 : 1"
       inkscape:vp_y="0 : 1000 : 0"
       inkscape:vp_x="0 : 526.18109 : 1"
       sodipodi:type="inkscape:persp3d" />
    <inkscape:perspective
       id="perspective2780"
       inkscape:persp3d-origin="372.04724 : 350.78739 : 1"
       inkscape:vp_z="744.09448 : 526.18109 : 1"
       inkscape:vp_y="0 : 1000 : 0"
       inkscape:vp_x="0 : 526.18109 : 1"
       sodipodi:type="inkscape:persp3d" />
  </defs>
  <sodipodi:namedview
     id="base"
     pagecolor="#ffffff"
     bordercolor="#666666"
     borderopacity="1.0"
     inkscape:pageopacity="0.0"
     inkscape:pageshadow="2"
     inkscape:zoom="2.8"
     inkscape:cx="-16.751357"
     inkscape:cy="29.463366"
     inkscape:document-units="px"
     inkscape:current-layer="layer1"
     showgrid="false"
     inkscape:window-width="728"
     inkscape:window-height="731"
     inkscape:window-x="22"
     inkscape:window-y="29" />
  <metadata
     id="metadata7">
    <rdf:RDF>
      <cc:Work
         rdf:about="">
        <dc:format>image/svg+xml</dc:format>
        <dc:type
           rdf:resource="http://purl.org/dc/dcmitype/StillImage" />
      </cc:Work>
    </rdf:RDF>
  </metadata>
  <g
     inkscape:label="Capa 1"
     inkscape:groupmode="layer"
     id="layer1"
     transform="translate(-83.142853,-299.07648)">
    <g
       id="g2786"
       transform="matrix(0.8800555,0,0,1.242478,17.600018,-77.651107)">
      <path
         style="fill:#a6a6a6"
         d="M 102.91999,340.35067 C 102.73353,339.94439 101.75991,339.85248 97.619595,339.85032 C 90.01292,339.84635 83.470242,339.0813 81.256556,337.93696 C 73.204817,333.7747 73.292151,321.34177 81.440191,311.79447 C 88.980363,302.95942 100.68251,301.39105 105.69573,308.54364 L 106.71033,309.99122 L 116.89088,310.00226 C 126.27979,310.01244 127.14132,310.06204 127.97033,310.64018 L 128.86923,311.26706 L 128.76398,320.99781 L 128.65873,330.72855 L 127.76587,330.83457 C 127.07191,330.91698 126.87301,331.1572 126.87301,331.91292 C 126.87301,332.80293 126.75546,332.88523 125.48412,332.88523 L 124.09523,332.88523 L 124.09523,335.90247 C 124.09523,338.64067 124.02183,338.93576 123.30158,339.09324 C 122.78798,339.20554 122.50793,339.54582 122.50793,340.05757 L 122.50793,340.84836 L 112.82817,340.84836 C 104.59,340.84836 103.11438,340.77424 102.91999,340.35067 z M 120.82168,339.27233 C 120.95043,338.94888 119.05762,338.85758 112.22354,338.85758 C 104.64857,338.85758 103.46031,338.92594 103.46031,339.36175 C 103.46031,339.80001 104.58425,339.85423 112.05845,339.77649 C 118.50657,339.70943 120.69788,339.58336 120.82168,339.27233 z M 121.13179,337.71322 L 122.50793,337.23245 L 122.50793,330.57958 L 122.50793,323.9267 L 112.19047,323.9267 L 101.87301,323.9267 L 101.87301,331.06035 L 101.87301,338.19399 L 110.81433,338.19399 C 117.72451,338.19399 120.06825,338.08478 121.13179,337.71322 z M 103.32804,336.3138 C 102.83125,335.89843 103.02664,325.74922 103.53968,325.32025 C 104.21274,324.75749 119.77138,324.75749 120.44444,325.32025 C 120.77586,325.59736 120.92063,327.36265 120.92063,331.1267 L 120.92063,336.535 L 112.25661,336.535 C 107.4914,336.535 103.47354,336.43546 103.32804,336.3138 z M 124.88889,330.89445 C 124.88889,330.45205 124.62433,330.23085 124.09523,330.23085 C 123.56614,330.23085 123.30158,330.45205 123.30158,330.89445 C 123.30158,331.33684 123.56614,331.55804 124.09523,331.55804 C 124.62433,331.55804 124.88889,331.33684 124.88889,330.89445 z M 125.43566,328.73331 L 126.87301,328.23116 L 126.87301,319.44299 L 126.87301,310.65481 L 116.95238,310.65481 C 109.27718,310.65481 107.03312,310.74869 107.03782,311.06956 C 107.05469,312.22077 107.59986,312.29954 116.17712,312.38995 L 124.69047,312.4797 L 124.79752,319.72564 C 124.90135,326.7542 124.88051,326.97684 124.10307,327.14683 C 123.53275,327.27153 123.30158,327.598 123.30158,328.27877 C 123.30158,329.37958 123.47814,329.41719 125.43566,328.73331 z"
         id="path2800" />
      <path
         style="fill:#8e9191"
         d="M 102.78923,339.9419 C 102.40492,339.43677 101.86298,338.90408 101.58492,338.75814 C 101.30686,338.61221 101.07936,338.29047 101.07936,338.04317 C 101.07936,337.71631 100.67304,337.63728 99.591267,337.75374 C 98.772815,337.84186 97.388887,337.70961 96.515871,337.45986 C 95.011128,337.02938 94.794411,337.05823 92.349204,338.01462 C 90.187874,338.85998 89.287492,339.02261 86.793649,339.0181 C 82.23158,339.00985 78.905987,337.25683 76.991285,333.85098 C 71.98689,324.94923 78.853202,310.15477 90.156966,305.48363 C 96.500284,302.86234 102.47987,303.98318 105.34776,308.33107 L 106.43651,309.98166 L 116.75396,309.99217 L 127.07142,310.00268 L 127.96428,310.79026 C 128.84745,311.56929 128.85714,311.68082 128.85714,321.07024 L 128.85714,330.56265 L 127.86508,330.56265 C 126.99584,330.56265 126.87301,330.70643 126.87301,331.72394 C 126.87301,332.85758 126.83522,332.88523 125.28571,332.88523 L 123.69841,332.88523 L 123.69841,336.0373 C 123.69841,338.54984 123.58324,339.18938 123.13077,339.18938 C 122.81857,339.18938 122.50607,339.52532 122.43633,339.93592 L 122.30952,340.68247 L 112.89875,340.77139 L 103.48798,340.86032 L 102.78923,339.9419 z M 120.92063,339.35528 C 120.92063,338.92796 119.68606,338.85758 112.19047,338.85758 C 104.69488,338.85758 103.46031,338.92796 103.46031,339.35528 C 103.46031,339.78259 104.69488,339.85297 112.19047,339.85297 C 119.68606,339.85297 120.92063,339.78259 120.92063,339.35528 z M 122.30952,330.89445 L 122.30952,323.76081 L 112.43803,323.67197 C 105.48851,323.60943 102.40517,323.69511 102.02136,323.96144 C 101.59348,324.25836 101.47619,325.71719 101.47619,330.74204 C 101.47619,334.26329 101.58572,337.38298 101.71959,337.67468 C 101.93535,338.14479 103.11869,338.19499 112.13626,338.11656 L 122.30952,338.02809 L 122.30952,330.89445 z M 103.46031,330.89445 L 103.46031,325.25389 L 111.94465,325.25389 L 120.42898,325.25389 L 120.6115,330.6456 C 120.71188,333.61104 120.72268,336.14929 120.63549,336.28615 C 120.5483,336.42302 116.64822,336.535 111.96864,336.535 L 103.46031,336.535 L 103.46031,330.89445 z M 83.091079,332.86057 C 83.779776,330.6815 83.717917,326.42155 82.964998,324.1779 C 82.322019,322.26186 80.301166,320.11104 79.143889,320.11104 C 78.235796,320.11104 77.524547,322.6889 77.496079,326.08339 C 77.47099,329.075 77.578004,329.58823 78.584061,331.30125 C 79.69755,333.19719 81.38602,334.66622 82.198065,334.44555 C 82.43397,334.38145 82.835826,333.66821 83.091079,332.86057 z M 124.88889,330.89445 C 124.88889,330.45205 124.62433,330.23085 124.09523,330.23085 C 123.56614,330.23085 123.30158,330.45205 123.30158,330.89445 C 123.30158,331.33684 123.56614,331.55804 124.09523,331.55804 C 124.62433,331.55804 124.88889,331.33684 124.88889,330.89445 z M 126.992,320.78016 C 127.16656,316.03849 127.20781,311.82052 127.08364,311.40688 L 126.85789,310.65481 L 116.75919,310.65481 L 106.66049,310.65481 L 106.99052,311.40136 C 107.31701,312.13991 107.41194,312.14886 115.85715,312.23721 L 124.39376,312.32651 L 124.57639,319.37085 C 124.67683,323.24523 124.67984,326.60182 124.58308,326.82993 C 124.48632,327.05804 124.1584,327.24468 123.85437,327.24468 C 123.48546,327.24468 123.30158,327.63732 123.30158,328.42505 L 123.30158,329.60541 L 124.98809,329.50339 L 126.6746,329.40136 L 126.992,320.78016 z M 104.97774,321.26891 C 105.79577,319.08466 105.74864,313.20002 104.89805,311.31841 C 103.86195,309.02642 102.54524,307.57855 100.72287,306.72734 L 99.062793,305.95195 L 99.335295,306.89324 C 99.485171,307.41095 99.902963,308.20781 100.26372,308.66403 C 102.08505,310.96732 102.83369,314.5639 102.23205,318.12025 C 102.01595,319.39767 101.73705,321.05667 101.61226,321.80691 L 101.38539,323.17099 L 102.90262,322.96478 C 104.28361,322.77709 104.46994,322.62482 104.97774,321.26891 z"
         id="path2798" />
      <path
         style="fill:#0dacdf"
         d="M 103.14983,340.45604 C 102.88409,340.23385 102.66666,339.86473 102.66666,339.63579 C 102.66666,339.40685 102.21719,338.84373 101.66784,338.38439 C 100.92456,337.76292 100.39154,337.59367 99.584504,337.72289 C 98.988025,337.8184 97.669873,337.68401 96.655277,337.42426 C 94.861891,336.96512 94.74042,336.98042 92.290198,337.97441 C 90.164998,338.83655 89.303213,338.99738 86.793649,339.00026 C 84.236548,339.00318 83.514435,338.86489 81.665519,338.01818 C 79.224938,336.90051 77.692776,335.31967 76.415623,332.60148 C 75.241001,330.10152 75.145132,324.11716 76.231473,321.10643 C 80.385682,309.59328 91.079664,302.07009 99.834806,304.50155 C 102.09988,305.1306 104.99657,307.29072 105.82938,308.97183 L 106.33438,309.99122 L 116.78815,309.99122 C 126.71735,309.99122 127.26253,310.02342 127.6527,310.633 C 128.25021,311.56651 128.20838,329.31339 127.60748,329.81582 C 127.35667,330.02553 127.04204,330.76461 126.90829,331.45822 C 126.6753,332.66656 126.59475,332.7236 124.98335,332.82136 L 123.30158,332.92339 L 123.30158,335.49233 C 123.30158,336.90524 123.13675,338.20311 122.93529,338.37647 C 122.73383,338.54984 122.51062,339.13961 122.43926,339.68707 L 122.30952,340.68247 L 112.97126,340.77125 C 106.04142,340.83714 103.50839,340.75584 103.14983,340.45604 z M 120.92063,339.35528 C 120.92063,338.92763 119.66402,338.85758 111.99206,338.85758 C 103.84039,338.85758 102.54098,338.97369 103.32804,339.63177 C 103.47354,339.75343 107.4914,339.85297 112.25661,339.85297 C 119.69341,339.85297 120.92063,339.78248 120.92063,339.35528 z M 122.41646,330.9774 L 122.30952,323.76081 L 112.43803,323.67197 C 105.48851,323.60943 102.40517,323.69511 102.02136,323.96144 C 101.59192,324.25945 101.47619,325.76331 101.47619,331.04567 C 101.47619,334.73393 101.59524,337.85113 101.74074,337.97279 C 101.88624,338.09445 106.62187,338.19399 112.26435,338.19399 L 122.52341,338.19399 L 122.41646,330.9774 z M 103.46031,330.89445 L 103.46031,325.25389 L 111.99206,325.25389 L 120.52381,325.25389 L 120.52381,330.89445 L 120.52381,336.535 L 111.99206,336.535 L 103.46031,336.535 L 103.46031,330.89445 z M 88.351993,334.68109 C 89.82826,334.1872 89.953347,334.03726 90.358758,332.27556 C 90.596557,331.24221 90.857114,330.13546 90.937773,329.81611 C 91.0549,329.35237 90.811098,329.23546 89.726856,329.23546 C 86.191439,329.23546 85.474093,323.7088 88.378683,318.84872 L 89.562112,316.86856 L 88.493163,315.22639 C 87.905241,314.3232 86.797637,313.07536 86.03182,312.45342 L 84.639425,311.32261 L 83.112929,312.56475 C 81.156292,314.1569 79.080623,317.69279 78.015435,321.2483 C 76.194626,327.326 78.02209,333.17563 82.230157,334.73943 C 83.850163,335.34146 86.452229,335.31666 88.351993,334.68109 z M 97.76589,332.47048 C 100.71053,329.84037 101.03635,329.24219 101.16115,326.23706 L 101.27778,323.42901 L 102.84944,323.26311 C 104.30878,323.10907 104.46158,322.99051 104.98765,321.60412 C 105.83917,319.36003 105.81325,313.22942 104.94342,311.142 C 103.53263,307.75641 100.28707,305.66418 96.48979,305.69242 L 94.531744,305.70698 L 95.966239,306.13561 C 98.371514,306.85431 99.787496,307.92725 100.95565,309.91628 C 101.99058,311.67845 102.07143,312.1046 102.07143,315.79767 C 102.07143,319.29255 101.93114,320.13711 100.92378,322.70692 C 100.28637,324.33297 98.874948,326.84074 97.749173,328.34748 C 96.088364,330.5703 95.744468,331.2851 95.845381,332.30459 C 95.913119,332.98892 96.101304,333.54882 96.263568,333.54882 C 96.425833,333.54882 97.101878,333.06357 97.76589,332.47048 z M 124.88889,330.89445 C 124.88889,330.45205 124.62433,330.23085 124.09523,330.23085 C 123.56614,330.23085 123.30158,330.45205 123.30158,330.89445 C 123.30158,331.33684 123.56614,331.55804 124.09523,331.55804 C 124.62433,331.55804 124.88889,331.33684 124.88889,330.89445 z M 127.0762,328.82071 C 127.19627,328.41011 127.24432,324.19214 127.18297,319.44744 L 127.07142,310.82071 L 116.90694,310.73225 L 106.74246,310.64379 L 106.93336,311.4788 L 107.12426,312.3138 L 115.80816,312.3138 L 124.49206,312.3138 L 124.49206,319.62375 C 124.49206,325.81541 124.401,326.96292 123.89682,327.12469 C 123.52956,327.24253 123.30158,327.74684 123.30158,328.44147 C 123.30158,329.55383 123.32279,329.56726 125.07974,329.56726 C 126.59451,329.56726 126.89023,329.45668 127.0762,328.82071 z M 90.579288,317.02747 C 90.301556,316.79525 88.427291,319.41113 87.775598,320.94053 C 87.064831,322.60857 86.847053,325.51625 87.378987,326.23589 C 87.614831,326.55496 88.209367,325.17255 89.230226,321.93139 C 90.057327,319.3054 90.664405,317.09864 90.579288,317.02747 z"
         id="path2796" />
      <path
         style="fill:#6d7071"
         d="M 103.14983,340.45604 C 102.88409,340.23385 102.66666,339.86473 102.66666,339.63579 C 102.66666,339.40685 102.21719,338.84373 101.66784,338.38439 C 100.92456,337.76292 100.39154,337.59367 99.584504,337.72289 C 98.988025,337.8184 97.669873,337.68401 96.655277,337.42426 C 94.861891,336.96512 94.74042,336.98042 92.290198,337.97441 C 90.164998,338.83655 89.303213,338.99738 86.793649,339.00026 C 84.236548,339.00318 83.514435,338.86489 81.665519,338.01818 C 79.224938,336.90051 77.692776,335.31967 76.415623,332.60148 C 75.241001,330.10152 75.145132,324.11716 76.231473,321.10643 C 80.385682,309.59328 91.079664,302.07009 99.834806,304.50155 C 102.09988,305.1306 104.99657,307.29072 105.82938,308.97183 L 106.33438,309.99122 L 116.78815,309.99122 C 126.71735,309.99122 127.26253,310.02342 127.6527,310.633 C 128.25021,311.56651 128.20838,329.31339 127.60748,329.81582 C 127.35667,330.02553 127.04204,330.76461 126.90829,331.45822 C 126.6753,332.66656 126.59475,332.7236 124.98335,332.82136 L 123.30158,332.92339 L 123.30158,335.49233 C 123.30158,336.90524 123.13675,338.20311 122.93529,338.37647 C 122.73383,338.54984 122.51062,339.13961 122.43926,339.68707 L 122.30952,340.68247 L 112.97126,340.77125 C 106.04142,340.83714 103.50839,340.75584 103.14983,340.45604 z M 120.92063,339.35528 C 120.92063,338.92763 119.66402,338.85758 111.99206,338.85758 C 103.84039,338.85758 102.54098,338.97369 103.32804,339.63177 C 103.47354,339.75343 107.4914,339.85297 112.25661,339.85297 C 119.69341,339.85297 120.92063,339.78248 120.92063,339.35528 z M 122.41646,330.9774 L 122.30952,323.76081 L 112.43803,323.67197 C 105.48851,323.60943 102.40517,323.69511 102.02136,323.96144 C 101.59192,324.25945 101.47619,325.76331 101.47619,331.04567 C 101.47619,334.73393 101.59524,337.85113 101.74074,337.97279 C 101.88624,338.09445 106.62187,338.19399 112.26435,338.19399 L 122.52341,338.19399 L 122.41646,330.9774 z M 103.46031,330.89445 L 103.46031,325.25389 L 111.99206,325.25389 L 120.52381,325.25389 L 120.52381,330.89445 L 120.52381,336.535 L 111.99206,336.535 L 103.46031,336.535 L 103.46031,330.89445 z M 88.351993,334.68109 C 89.82826,334.1872 89.953347,334.03726 90.358758,332.27556 C 90.596557,331.24221 90.857114,330.13546 90.937773,329.81611 C 91.0549,329.35237 90.811098,329.23546 89.726856,329.23546 C 86.191439,329.23546 85.474093,323.7088 88.378683,318.84872 L 89.562112,316.86856 L 88.493163,315.22639 C 87.905241,314.3232 86.797637,313.07536 86.03182,312.45342 L 84.639425,311.32261 L 83.112929,312.56475 C 81.156292,314.1569 79.080623,317.69279 78.015435,321.2483 C 76.194626,327.326 78.02209,333.17563 82.230157,334.73943 C 83.850163,335.34146 86.452229,335.31666 88.351993,334.68109 z M 97.76589,332.47048 C 100.71053,329.84037 101.03635,329.24219 101.16115,326.23706 L 101.27778,323.42901 L 102.84944,323.26311 C 104.30878,323.10907 104.46158,322.99051 104.98765,321.60412 C 105.83917,319.36003 105.81325,313.22942 104.94342,311.142 C 103.53263,307.75641 100.28707,305.66418 96.48979,305.69242 L 94.531744,305.70698 L 95.966239,306.13561 C 98.371514,306.85431 99.787496,307.92725 100.95565,309.91628 C 101.99058,311.67845 102.07143,312.1046 102.07143,315.79767 C 102.07143,319.29255 101.93114,320.13711 100.92378,322.70692 C 100.28637,324.33297 98.874948,326.84074 97.749173,328.34748 C 96.088364,330.5703 95.744468,331.2851 95.845381,332.30459 C 95.913119,332.98892 96.101304,333.54882 96.263568,333.54882 C 96.425833,333.54882 97.101878,333.06357 97.76589,332.47048 z M 124.88889,330.89445 C 124.88889,330.45205 124.62433,330.23085 124.09523,330.23085 C 123.56614,330.23085 123.30158,330.45205 123.30158,330.89445 C 123.30158,331.33684 123.56614,331.55804 124.09523,331.55804 C 124.62433,331.55804 124.88889,331.33684 124.88889,330.89445 z M 127.0762,328.82071 C 127.19627,328.41011 127.24432,324.19214 127.18297,319.44744 L 127.07142,310.82071 L 116.90694,310.73225 L 106.74246,310.64379 L 106.93336,311.4788 L 107.12426,312.3138 L 115.80816,312.3138 L 124.49206,312.3138 L 124.49206,319.62375 C 124.49206,325.81541 124.401,326.96292 123.89682,327.12469 C 123.52956,327.24253 123.30158,327.74684 123.30158,328.44147 C 123.30158,329.55383 123.32279,329.56726 125.07974,329.56726 C 126.59451,329.56726 126.89023,329.45668 127.0762,328.82071 z M 124.09523,319.77924 L 124.09523,312.6456 L 115.8381,312.6456 L 107.58097,312.6456 L 107.75632,315.71216 C 107.9001,318.22675 108.09183,318.95835 108.82148,319.77668 C 109.31088,320.32555 109.92582,321.33454 110.18801,322.01887 L 110.66472,323.26311 L 116.50696,323.26311 C 120.52183,323.26311 122.49815,323.38765 122.82539,323.66127 C 123.0873,323.88025 123.30158,324.70145 123.30158,325.48615 C 123.30158,326.27085 123.48016,326.91288 123.69841,326.91288 C 123.95066,326.91288 124.09523,324.3138 124.09523,319.77924 z M 90.579288,317.02747 C 90.301556,316.79525 88.427291,319.41113 87.775598,320.94053 C 87.064831,322.60857 86.847053,325.51625 87.378987,326.23589 C 87.614831,326.55496 88.209367,325.17255 89.230226,321.93139 C 90.057327,319.3054 90.664405,317.09864 90.579288,317.02747 z"
         id="path2794" />
      <path
         style="fill:#4f504f"
         d="M 103.36111,340.49341 C 102.97916,340.30552 102.66666,339.94204 102.66666,339.68567 C 102.66666,339.4293 102.21212,338.83948 101.65656,338.37497 C 100.84258,337.69438 100.25966,337.53039 98.654285,337.53039 C 97.558587,337.53039 96.296473,337.36678 95.849587,337.1668 C 95.189787,336.87156 94.506969,337.00751 92.216819,337.89013 C 87.432545,339.73397 83.103863,339.33979 79.74994,336.75487 C 77.633064,335.12336 76.674168,333.62852 75.835556,330.65267 C 74.625628,326.3592 75.648148,321.30625 78.843835,315.78675 C 83.957462,306.95465 94.070831,302.02469 101.00645,304.98316 C 102.83813,305.76448 105.23319,307.76837 105.86876,309.05133 L 106.33438,309.99122 L 116.57535,309.99122 C 125.35623,309.99122 126.90523,310.06556 127.4399,310.51262 C 128.34117,311.26619 128.37841,328.76049 127.48087,329.75269 C 127.16043,330.10692 126.89258,330.882 126.88563,331.47509 C 126.87402,332.46726 126.76994,332.55384 125.58333,332.55851 C 124.874,332.56131 124.08607,332.67402 123.83237,332.80898 C 123.57739,332.94463 123.29461,334.16661 123.20008,335.54123 C 123.10603,336.909 122.74996,338.62532 122.40881,339.35528 L 121.78855,340.68247 L 112.92205,340.75874 C 107.38646,340.80636 103.79467,340.70668 103.36111,340.49341 z M 120.92063,339.35528 C 120.92063,338.92763 119.66402,338.85758 111.99206,338.85758 C 104.3201,338.85758 103.06349,338.92763 103.06349,339.35528 C 103.06349,339.78293 104.3201,339.85297 111.99206,339.85297 C 119.66402,339.85297 120.92063,339.78293 120.92063,339.35528 z M 122.41646,330.9774 L 122.30952,323.76081 L 111.99206,323.76081 L 101.6746,323.76081 L 101.5669,330.55369 C 101.50766,334.28978 101.5467,337.53724 101.65365,337.77028 C 101.80452,338.09902 104.16513,338.19399 112.18576,338.19399 L 122.52341,338.19399 L 122.41646,330.9774 z M 103.46031,330.89445 L 103.46031,325.25389 L 111.99206,325.25389 L 120.52381,325.25389 L 120.52381,330.89445 L 120.52381,336.535 L 111.99206,336.535 L 103.46031,336.535 L 103.46031,330.89445 z M 91.876563,336.20778 C 94.33737,335.2344 98.323385,332.39404 100.03048,330.39745 C 100.69786,329.6169 100.92366,328.75976 101.07936,326.41589 L 101.27778,323.42901 L 102.865,323.26311 C 104.29436,323.11371 104.50844,322.96521 105.01744,321.77002 C 105.38351,320.91047 105.59326,318.98148 105.61276,316.29537 C 105.63848,312.75032 105.52228,311.93103 104.81276,310.65481 C 102.92012,307.25052 100.23409,305.66273 96.432473,305.70097 L 94.134918,305.72408 L 95.988689,306.20111 C 101.24993,307.55499 103.60197,313.82464 101.4671,320.8045 C 99.576723,326.98502 95.350975,332.10386 90.067458,334.61342 C 88.141677,335.52812 87.505027,336.35561 88.248675,336.9774 C 88.700989,337.35559 89.291475,337.23032 91.876563,336.20778 z M 89.508117,334.3454 C 95.771476,332.01841 101.83677,322.90871 101.86612,315.78443 C 101.87545,313.51973 100.86471,310.42193 99.6279,308.92455 C 98.479416,307.53411 95.89225,306.34145 94.024517,306.34145 C 90.803871,306.34145 86.296359,308.64539 83.278158,311.83428 C 77.068126,318.39551 75.313971,328.87049 79.722249,333.06849 C 82.407363,335.62551 85.112466,335.97849 89.508117,334.3454 z M 88.276251,328.82071 C 87.618226,328.40291 86.780076,326.87373 86.809537,326.14474 C 86.818275,325.92851 87.08541,326.15194 87.403171,326.64125 C 88.010504,327.57647 89.447569,328.1713 89.942616,327.69238 C 90.393451,327.25624 94.008767,315.2498 93.753525,315.03638 C 93.629296,314.93251 92.682146,315.34572 91.648747,315.95463 C 90.615348,316.56354 90.02346,316.80605 90.333442,316.49353 C 91.331476,315.48734 94.250538,314.25289 95.368728,314.36415 C 99.110423,314.73645 98.945834,321.15867 95.069185,326.05225 C 92.980417,328.68896 89.988922,329.90814 88.276251,328.82071 z M 124.88889,330.89445 C 124.88889,330.40781 124.62433,330.23085 123.89682,330.23085 C 122.81664,330.23085 122.7903,330.25898 123.14563,331.03321 C 123.50296,331.81182 124.88889,331.7015 124.88889,330.89445 z M 127.07142,320.11104 L 127.07142,310.82071 L 116.90694,310.73225 L 106.74246,310.64379 L 106.9319,311.47243 L 107.12135,312.30107 L 115.7075,312.39038 L 124.29365,312.4797 L 124.40062,319.70421 C 124.49261,325.91676 124.42313,326.95582 123.90459,327.1222 C 123.52647,327.24352 123.30158,327.74231 123.30158,328.45965 L 123.30158,329.60362 L 125.1865,329.50249 L 127.07142,329.40136 L 127.07142,320.11104 z M 124.09523,319.77924 L 124.09523,312.6456 L 115.8381,312.6456 L 107.58097,312.6456 L 107.75632,315.71216 C 107.9001,318.22675 108.09183,318.95835 108.82148,319.77668 C 109.31088,320.32555 109.92582,321.33454 110.18801,322.01887 L 110.66472,323.26311 L 116.50696,323.26311 C 120.52183,323.26311 122.49815,323.38765 122.82539,323.66127 C 123.0873,323.88025 123.30158,324.70145 123.30158,325.48615 C 123.30158,326.27085 123.48016,326.91288 123.69841,326.91288 C 123.95066,326.91288 124.09523,324.3138 124.09523,319.77924 z"
         id="path2792" />
      <path
         style="fill:#033e86"
         d="M 102.66666,339.35528 C 102.66666,338.89906 102.82852,338.52578 103.02634,338.52578 C 103.22416,338.52578 103.29262,338.8244 103.17847,339.18938 C 102.97544,339.83853 103.16629,339.85297 111.94578,339.85297 C 120.55177,339.85297 120.92063,339.82662 120.92063,339.21174 C 120.92063,338.85906 121.27777,338.47573 121.71428,338.35989 C 122.47618,338.15769 122.50793,337.85787 122.50793,330.86658 L 122.50793,323.58389 L 112.09127,323.67235 L 101.6746,323.76081 L 101.5672,330.68629 C 101.49231,335.51477 101.59714,337.75015 101.9134,338.06878 C 102.25409,338.41201 102.25303,338.52578 101.90915,338.52578 C 101.65732,338.52578 101.34849,338.30182 101.22286,338.02809 C 101.06592,337.68611 100.4268,337.53039 99.18016,337.53039 C 98.1823,337.53039 96.799559,337.35917 96.107402,337.1499 C 94.998705,336.81469 94.570315,336.88369 92.507799,337.72973 C 89.27277,339.05674 84.861997,339.25926 82.247127,338.20085 C 77.849492,336.42086 75.509444,332.40912 75.566076,326.74698 C 75.654646,317.89167 82.073025,308.83707 90.690923,305.40992 C 93.097355,304.45293 94.051155,304.2534 96.246478,304.24772 C 100.45727,304.23684 103.67207,305.8021 105.48728,308.74698 L 106.25422,309.99122 L 116.48425,309.99122 C 123.91184,309.99122 126.84473,310.10029 127.19047,310.38938 C 127.53839,310.68028 127.66666,313.31487 127.66666,320.16975 L 127.66666,329.55196 L 126.69825,330.08251 C 126.16562,330.37431 125.67455,330.93766 125.60698,331.3344 C 125.5252,331.81457 125.15244,332.09465 124.49206,332.17214 C 123.09433,332.33613 122.9177,332.7189 122.91083,335.59886 C 122.90691,337.24411 122.72119,338.3019 122.38652,338.58503 C 122.10149,338.82618 121.74995,339.28477 121.60533,339.60412 C 121.36516,340.13444 120.53298,340.18477 112.00451,340.18477 L 102.66666,340.18477 L 102.66666,339.35528 z M 91.777455,336.44467 C 94.633565,335.23247 97.438475,333.28952 99.392855,331.1695 C 101.05239,329.36932 101.07936,329.29783 101.07936,326.69974 C 101.07936,323.75494 101.39354,323.26311 103.27469,323.26311 C 104.35778,323.26311 104.58176,323.10309 105.01627,322.01887 C 105.89683,319.82165 106.03383,314.03286 105.25808,311.80166 C 103.71295,307.35759 99.860213,304.98962 95.126982,305.57487 C 93.566511,305.76782 93.466403,305.82592 94.333331,306.03549 C 95.124856,306.22683 94.964426,306.28264 93.53968,306.31162 C 87.538729,306.43366 80.541079,312.81478 78.036091,320.44928 C 76.99482,323.62278 76.890017,328.02027 77.803504,330.20857 C 78.141189,331.0175 78.31024,331.82444 78.179171,332.00177 C 78.048103,332.17909 78.128316,332.2273 78.357422,332.10891 C 78.586528,331.99052 78.879931,332.12451 79.009427,332.40667 C 79.144252,332.70045 79.077227,332.83306 78.852596,332.71698 C 78.062376,332.30863 78.493461,333.2017 79.749999,334.5761 C 80.459324,335.35196 81.843252,336.34704 82.825395,336.78738 C 85.180249,337.84317 88.809766,337.70422 91.777455,336.44467 z M 79.600175,333.63177 C 79.106576,333.10552 79.120611,333.09379 79.749999,333.5065 C 80.131943,333.75696 80.444443,334.01825 80.444443,334.08715 C 80.444443,334.36023 80.118575,334.18447 79.600175,333.63177 z M 93.919922,331.80689 C 94.892943,330.94007 95.741157,330.23085 95.804842,330.23085 C 96.102813,330.23085 95.787772,330.52875 94.035712,331.9037 L 92.150792,333.38293 L 93.919922,331.80689 z M 88.1645,328.42105 C 87.628786,327.97312 87.204572,327.41322 87.221803,327.17681 C 87.246973,326.83147 87.294156,326.83272 87.461832,327.18317 C 87.576618,327.42307 88.106776,327.75804 88.639961,327.92754 C 91.7538,328.91741 96.290868,324.19374 96.993977,319.22994 C 97.279065,317.21727 96.917916,316.08968 95.681291,315.13142 C 94.812393,314.45811 94.784954,314.37869 95.473228,314.52918 C 97.200566,314.90687 97.707202,315.86752 97.69273,318.73766 C 97.6811,321.04433 97.501521,321.75508 96.461525,323.61062 C 95.09851,326.04249 93.184579,328.03341 91.516353,328.75471 C 89.96305,329.42633 89.286223,329.35895 88.1645,328.42105 z M 101.90434,316.76541 C 101.92338,316.37889 102.01741,316.30027 102.14409,316.56495 C 102.25872,316.80447 102.24462,317.09064 102.11276,317.2009 C 101.9809,317.31115 101.88711,317.11518 101.90434,316.76541 z M 98.668376,307.75159 L 97.706347,306.83915 L 98.797617,307.64353 C 99.817573,308.39534 100.07087,308.66403 99.759646,308.66403 C 99.688564,308.66403 99.197492,308.25343 98.668376,307.75159 z M 100.9987,334.21242 L 101.11645,332.05574 L 98.723796,334.03048 C 96.069955,336.22077 96.127914,336.59918 99.095236,336.45554 L 100.88095,336.3691 L 100.9987,334.21242 z M 124.88889,330.70547 C 124.88889,330.01111 124.7232,329.87258 123.99603,329.95893 C 123.42223,330.02707 123.05786,330.33173 122.97637,330.8115 C 122.87309,331.41951 123.03877,331.55804 123.86922,331.55804 C 124.69967,331.55804 124.88889,331.39983 124.88889,330.70547 z M 127.1771,320.31745 C 127.25184,313.89297 127.15048,311.10026 126.83089,310.77828 C 126.47061,310.4153 124.42289,310.32302 116.72879,310.32302 C 111.42118,310.32302 106.98737,310.44641 106.87589,310.59723 C 106.76441,310.74805 106.7738,311.19311 106.89676,311.58626 C 107.11586,312.28678 107.29192,312.30285 115.70698,312.39038 L 124.29365,312.4797 L 124.30553,319.69649 L 124.31742,326.91329 L 124.19859,319.77944 L 124.07976,312.6456 L 115.83036,312.6456 L 107.58097,312.6456 L 107.75632,315.71216 C 107.9001,318.22675 108.09183,318.95835 108.82148,319.77668 C 109.31088,320.32555 109.92582,321.33454 110.18801,322.01887 L 110.66472,323.26311 L 116.53774,323.26311 C 121.2867,323.26311 122.50576,323.35883 122.90716,323.76322 C 123.26847,324.12724 123.32775,324.98997 123.12499,326.93348 L 122.84642,329.60363 L 124.95892,329.50249 L 127.07142,329.40136 L 127.1771,320.31745 z M 109.01587,322.92066 C 109.01587,322.73231 108.74391,322.03398 108.41152,321.36882 C 107.71714,319.97926 107.22404,320.18066 106.82005,322.01887 C 106.55188,323.23904 106.57047,323.26311 107.78123,323.26311 C 108.46028,323.26311 109.01587,323.10901 109.01587,322.92066 z M 103.73269,336.32034 C 103.58288,336.19509 103.46031,333.6539 103.46031,330.67325 L 103.46031,325.25389 L 112.00166,325.25389 L 120.543,325.25389 L 120.43419,330.8115 L 120.32539,336.3691 L 112.16523,336.45859 C 107.67714,336.50782 103.8825,336.4456 103.73269,336.32034 z"
         id="path2790" />
      <path
         style="fill:#121313"
         d="M 102.66666,339.35528 C 102.66666,338.89906 102.82852,338.52578 103.02634,338.52578 C 103.22416,338.52578 103.29262,338.8244 103.17847,339.18938 C 102.97544,339.83853 103.16629,339.85297 111.94578,339.85297 C 120.55177,339.85297 120.92063,339.82662 120.92063,339.21174 C 120.92063,338.85906 121.27777,338.47573 121.71428,338.35989 C 122.47618,338.15769 122.50793,337.85787 122.50793,330.86658 L 122.50793,323.58389 L 112.09127,323.67235 L 101.6746,323.76081 L 101.5672,330.68629 C 101.49231,335.51477 101.59714,337.75015 101.9134,338.06878 C 102.25409,338.41201 102.25303,338.52578 101.90915,338.52578 C 101.65732,338.52578 101.34849,338.30182 101.22286,338.02809 C 101.06592,337.68611 100.4268,337.53039 99.18016,337.53039 C 98.1823,337.53039 96.799559,337.35917 96.107402,337.1499 C 94.998705,336.81469 94.570315,336.88369 92.507799,337.72973 C 89.27277,339.05674 84.861997,339.25926 82.247127,338.20085 C 77.849492,336.42086 75.509444,332.40912 75.566076,326.74698 C 75.654646,317.89167 82.073025,308.83707 90.690923,305.40992 C 93.097355,304.45293 94.051155,304.2534 96.246478,304.24772 C 100.45727,304.23684 103.67207,305.8021 105.48728,308.74698 L 106.25422,309.99122 L 116.48425,309.99122 C 123.91184,309.99122 126.84473,310.10029 127.19047,310.38938 C 127.53839,310.68028 127.66666,313.31487 127.66666,320.16975 L 127.66666,329.55196 L 126.69825,330.08251 C 126.16562,330.37431 125.67455,330.93766 125.60698,331.3344 C 125.5252,331.81457 125.15244,332.09465 124.49206,332.17214 C 123.09433,332.33613 122.9177,332.7189 122.91083,335.59886 C 122.90691,337.24411 122.72119,338.3019 122.38652,338.58503 C 122.10149,338.82618 121.74995,339.28477 121.60533,339.60412 C 121.36516,340.13444 120.53298,340.18477 112.00451,340.18477 L 102.66666,340.18477 L 102.66666,339.35528 z M 91.777455,336.44467 C 94.633565,335.23247 97.438475,333.28952 99.392855,331.1695 C 101.05239,329.36932 101.07936,329.29783 101.07936,326.69974 C 101.07936,323.75494 101.39354,323.26311 103.27469,323.26311 C 104.35778,323.26311 104.58176,323.10309 105.01627,322.01887 C 105.89683,319.82165 106.03383,314.03286 105.25808,311.80166 C 103.71295,307.35759 99.860213,304.98962 95.126982,305.57487 C 93.566511,305.76782 93.466403,305.82592 94.333331,306.03549 C 95.124856,306.22683 94.964426,306.28264 93.53968,306.31162 C 87.538729,306.43366 80.541079,312.81478 78.036091,320.44928 C 76.99482,323.62278 76.890017,328.02027 77.803504,330.20857 C 78.141189,331.0175 78.31024,331.82444 78.179171,332.00177 C 78.048103,332.17909 78.128316,332.2273 78.357422,332.10891 C 78.586528,331.99052 78.879931,332.12451 79.009427,332.40667 C 79.144252,332.70045 79.077227,332.83306 78.852596,332.71698 C 78.062376,332.30863 78.493461,333.2017 79.749999,334.5761 C 80.459324,335.35196 81.843252,336.34704 82.825395,336.78738 C 85.180249,337.84317 88.809766,337.70422 91.777455,336.44467 z M 79.600175,333.63177 C 79.106576,333.10552 79.120611,333.09379 79.749999,333.5065 C 80.131943,333.75696 80.444443,334.01825 80.444443,334.08715 C 80.444443,334.36023 80.118575,334.18447 79.600175,333.63177 z M 93.919922,331.80689 C 94.892943,330.94007 95.741157,330.23085 95.804842,330.23085 C 96.102813,330.23085 95.787772,330.52875 94.035712,331.9037 L 92.150792,333.38293 L 93.919922,331.80689 z M 88.1645,328.42105 C 87.628786,327.97312 87.204572,327.41322 87.221803,327.17681 C 87.246973,326.83147 87.294156,326.83272 87.461832,327.18317 C 87.576618,327.42307 88.106776,327.75804 88.639961,327.92754 C 91.7538,328.91741 96.290868,324.19374 96.993977,319.22994 C 97.279065,317.21727 96.917916,316.08968 95.681291,315.13142 C 94.812393,314.45811 94.784954,314.37869 95.473228,314.52918 C 97.200566,314.90687 97.707202,315.86752 97.69273,318.73766 C 97.6811,321.04433 97.501521,321.75508 96.461525,323.61062 C 95.09851,326.04249 93.184579,328.03341 91.516353,328.75471 C 89.96305,329.42633 89.286223,329.35895 88.1645,328.42105 z M 101.90434,316.76541 C 101.92338,316.37889 102.01741,316.30027 102.14409,316.56495 C 102.25872,316.80447 102.24462,317.09064 102.11276,317.2009 C 101.9809,317.31115 101.88711,317.11518 101.90434,316.76541 z M 98.668376,307.75159 L 97.706347,306.83915 L 98.797617,307.64353 C 99.817573,308.39534 100.07087,308.66403 99.759646,308.66403 C 99.688564,308.66403 99.197492,308.25343 98.668376,307.75159 z M 100.9987,334.21242 L 101.11645,332.05574 L 98.723796,334.03048 C 96.069955,336.22077 96.127914,336.59918 99.095236,336.45554 L 100.88095,336.3691 L 100.9987,334.21242 z M 124.88889,330.70547 C 124.88889,330.01111 124.7232,329.87258 123.99603,329.95893 C 123.42223,330.02707 123.05786,330.33173 122.97637,330.8115 C 122.87309,331.41951 123.03877,331.55804 123.86922,331.55804 C 124.69967,331.55804 124.88889,331.39983 124.88889,330.70547 z M 127.1771,320.31745 C 127.25184,313.89297 127.15048,311.10026 126.83089,310.77828 C 126.47061,310.4153 124.42289,310.32302 116.72879,310.32302 C 111.42118,310.32302 106.98737,310.44641 106.87589,310.59723 C 106.76441,310.74805 106.7747,311.19598 106.89875,311.59263 C 107.12059,312.30192 107.26575,312.31505 115.70898,312.38979 L 124.29365,312.46578 L 115.87464,312.56225 L 107.45564,312.65873 L 107.46836,315.52336 C 107.47952,318.03682 107.59933,318.51762 108.44578,319.44551 C 108.97636,320.02715 109.65194,321.08673 109.94706,321.80013 L 110.48364,323.09721 L 116.38787,323.18946 C 119.63519,323.2402 122.43591,323.40197 122.61169,323.54894 C 122.78746,323.69591 122.93706,325.11762 122.94412,326.70829 L 122.95696,329.60042 L 125.01419,329.50089 L 127.07142,329.40136 L 127.1771,320.31745 z M 109.01587,322.92066 C 109.01587,322.73231 108.74391,322.03398 108.41152,321.36882 C 107.71714,319.97926 107.22404,320.18066 106.82005,322.01887 C 106.55188,323.23904 106.57047,323.26311 107.78123,323.26311 C 108.46028,323.26311 109.01587,323.10901 109.01587,322.92066 z M 103.71915,336.28615 C 103.61749,336.14929 106.06231,336.0759 109.15207,336.12306 C 119.37783,336.27917 120.43202,336.40229 112.11469,336.46907 C 107.5988,336.50533 103.8208,336.42302 103.71915,336.28615 z"
         id="path2788" />
    </g>
  </g>
</svg>
